<mxfile host="app.diagrams.net" modified="2023-09-04T19:52:19.564Z" agent="Mozilla/5.0 (Windows NT 10.0; Win64; x64) AppleWebKit/537.36 (KHTML, like Gecko) Chrome/116.0.0.0 Safari/537.36" etag="3IduocYLCj8JcpZMXVNF" version="21.7.2" type="device">
  <diagram name="PÃ¡gina-1" id="13VquJH00qfW_B2TX2-U">
    <mxGraphModel dx="1221" dy="1242" grid="1" gridSize="10" guides="1" tooltips="1" connect="1" arrows="1" fold="1" page="1" pageScale="1" pageWidth="827" pageHeight="1169" math="0" shadow="0">
      <root>
        <mxCell id="0" />
        <mxCell id="1" parent="0" />
        <mxCell id="pJbM2nBJ7fXQVB-sFY_z-1" value="User" style="shape=table;startSize=30;container=1;collapsible=0;childLayout=tableLayout;fixedRows=1;rowLines=0;fontStyle=0;strokeColor=default;fontSize=16;" parent="1" vertex="1">
          <mxGeometry x="50" y="300" width="310" height="380" as="geometry" />
        </mxCell>
        <mxCell id="pJbM2nBJ7fXQVB-sFY_z-2" value="" style="shape=tableRow;horizontal=0;startSize=0;swimlaneHead=0;swimlaneBody=0;top=0;left=0;bottom=0;right=0;collapsible=0;dropTarget=0;fillColor=none;points=[[0,0.5],[1,0.5]];portConstraint=eastwest;strokeColor=inherit;fontSize=16;" parent="pJbM2nBJ7fXQVB-sFY_z-1" vertex="1">
          <mxGeometry y="30" width="310" height="30" as="geometry" />
        </mxCell>
        <mxCell id="pJbM2nBJ7fXQVB-sFY_z-3" value="_id" style="shape=partialRectangle;html=1;whiteSpace=wrap;connectable=0;fillColor=none;top=0;left=0;bottom=0;right=0;overflow=hidden;pointerEvents=1;strokeColor=inherit;fontSize=16;" parent="pJbM2nBJ7fXQVB-sFY_z-2" vertex="1">
          <mxGeometry width="138" height="30" as="geometry">
            <mxRectangle width="138" height="30" as="alternateBounds" />
          </mxGeometry>
        </mxCell>
        <mxCell id="pJbM2nBJ7fXQVB-sFY_z-4" value="String" style="shape=partialRectangle;html=1;whiteSpace=wrap;connectable=0;fillColor=none;top=0;left=0;bottom=0;right=0;align=center;spacingLeft=6;overflow=hidden;strokeColor=inherit;fontSize=16;" parent="pJbM2nBJ7fXQVB-sFY_z-2" vertex="1">
          <mxGeometry x="138" width="172" height="30" as="geometry">
            <mxRectangle width="172" height="30" as="alternateBounds" />
          </mxGeometry>
        </mxCell>
        <mxCell id="pJbM2nBJ7fXQVB-sFY_z-5" value="" style="shape=tableRow;horizontal=0;startSize=0;swimlaneHead=0;swimlaneBody=0;top=0;left=0;bottom=0;right=0;collapsible=0;dropTarget=0;fillColor=none;points=[[0,0.5],[1,0.5]];portConstraint=eastwest;strokeColor=inherit;fontSize=16;" parent="pJbM2nBJ7fXQVB-sFY_z-1" vertex="1">
          <mxGeometry y="60" width="310" height="30" as="geometry" />
        </mxCell>
        <mxCell id="pJbM2nBJ7fXQVB-sFY_z-6" value="firstName" style="shape=partialRectangle;html=1;whiteSpace=wrap;connectable=0;fillColor=none;top=0;left=0;bottom=0;right=0;overflow=hidden;strokeColor=inherit;fontSize=16;" parent="pJbM2nBJ7fXQVB-sFY_z-5" vertex="1">
          <mxGeometry width="138" height="30" as="geometry">
            <mxRectangle width="138" height="30" as="alternateBounds" />
          </mxGeometry>
        </mxCell>
        <mxCell id="pJbM2nBJ7fXQVB-sFY_z-7" value="String" style="shape=partialRectangle;html=1;whiteSpace=wrap;connectable=0;fillColor=none;top=0;left=0;bottom=0;right=0;align=center;spacingLeft=6;overflow=hidden;strokeColor=inherit;fontSize=16;" parent="pJbM2nBJ7fXQVB-sFY_z-5" vertex="1">
          <mxGeometry x="138" width="172" height="30" as="geometry">
            <mxRectangle width="172" height="30" as="alternateBounds" />
          </mxGeometry>
        </mxCell>
        <mxCell id="pJbM2nBJ7fXQVB-sFY_z-11" style="shape=tableRow;horizontal=0;startSize=0;swimlaneHead=0;swimlaneBody=0;top=0;left=0;bottom=0;right=0;collapsible=0;dropTarget=0;fillColor=none;points=[[0,0.5],[1,0.5]];portConstraint=eastwest;strokeColor=inherit;fontSize=16;" parent="pJbM2nBJ7fXQVB-sFY_z-1" vertex="1">
          <mxGeometry y="90" width="310" height="30" as="geometry" />
        </mxCell>
        <mxCell id="pJbM2nBJ7fXQVB-sFY_z-12" value="lastName" style="shape=partialRectangle;html=1;whiteSpace=wrap;connectable=0;fillColor=none;top=0;left=0;bottom=0;right=0;overflow=hidden;strokeColor=inherit;fontSize=16;" parent="pJbM2nBJ7fXQVB-sFY_z-11" vertex="1">
          <mxGeometry width="138" height="30" as="geometry">
            <mxRectangle width="138" height="30" as="alternateBounds" />
          </mxGeometry>
        </mxCell>
        <mxCell id="pJbM2nBJ7fXQVB-sFY_z-13" value="String" style="shape=partialRectangle;html=1;whiteSpace=wrap;connectable=0;fillColor=none;top=0;left=0;bottom=0;right=0;align=center;spacingLeft=6;overflow=hidden;strokeColor=inherit;fontSize=16;" parent="pJbM2nBJ7fXQVB-sFY_z-11" vertex="1">
          <mxGeometry x="138" width="172" height="30" as="geometry">
            <mxRectangle width="172" height="30" as="alternateBounds" />
          </mxGeometry>
        </mxCell>
        <mxCell id="pJbM2nBJ7fXQVB-sFY_z-8" value="" style="shape=tableRow;horizontal=0;startSize=0;swimlaneHead=0;swimlaneBody=0;top=0;left=0;bottom=0;right=0;collapsible=0;dropTarget=0;fillColor=none;points=[[0,0.5],[1,0.5]];portConstraint=eastwest;strokeColor=inherit;fontSize=16;arcSize=15;" parent="pJbM2nBJ7fXQVB-sFY_z-1" vertex="1">
          <mxGeometry y="120" width="310" height="40" as="geometry" />
        </mxCell>
        <mxCell id="pJbM2nBJ7fXQVB-sFY_z-9" value="friends" style="shape=partialRectangle;html=1;whiteSpace=wrap;connectable=0;fillColor=none;top=0;left=0;bottom=0;right=0;overflow=hidden;strokeColor=inherit;fontSize=16;" parent="pJbM2nBJ7fXQVB-sFY_z-8" vertex="1">
          <mxGeometry width="138" height="40" as="geometry">
            <mxRectangle width="138" height="40" as="alternateBounds" />
          </mxGeometry>
        </mxCell>
        <mxCell id="pJbM2nBJ7fXQVB-sFY_z-10" value="Array &amp;lt;Object&amp;gt;" style="shape=partialRectangle;html=1;whiteSpace=wrap;connectable=0;fillColor=none;top=0;left=0;bottom=0;right=0;align=center;spacingLeft=6;overflow=hidden;strokeColor=inherit;fontSize=16;" parent="pJbM2nBJ7fXQVB-sFY_z-8" vertex="1">
          <mxGeometry x="138" width="172" height="40" as="geometry">
            <mxRectangle width="172" height="40" as="alternateBounds" />
          </mxGeometry>
        </mxCell>
        <mxCell id="pJbM2nBJ7fXQVB-sFY_z-14" style="shape=tableRow;horizontal=0;startSize=0;swimlaneHead=0;swimlaneBody=0;top=0;left=0;bottom=0;right=0;collapsible=0;dropTarget=0;fillColor=none;points=[[0,0.5],[1,0.5]];portConstraint=eastwest;strokeColor=inherit;fontSize=16;arcSize=15;" parent="pJbM2nBJ7fXQVB-sFY_z-1" vertex="1">
          <mxGeometry y="160" width="310" height="30" as="geometry" />
        </mxCell>
        <mxCell id="pJbM2nBJ7fXQVB-sFY_z-15" value="email" style="shape=partialRectangle;html=1;whiteSpace=wrap;connectable=0;fillColor=none;top=0;left=0;bottom=0;right=0;overflow=hidden;strokeColor=inherit;fontSize=16;" parent="pJbM2nBJ7fXQVB-sFY_z-14" vertex="1">
          <mxGeometry width="138" height="30" as="geometry">
            <mxRectangle width="138" height="30" as="alternateBounds" />
          </mxGeometry>
        </mxCell>
        <mxCell id="pJbM2nBJ7fXQVB-sFY_z-16" value="String" style="shape=partialRectangle;html=1;whiteSpace=wrap;connectable=0;fillColor=none;top=0;left=0;bottom=0;right=0;align=center;spacingLeft=6;overflow=hidden;strokeColor=inherit;fontSize=16;" parent="pJbM2nBJ7fXQVB-sFY_z-14" vertex="1">
          <mxGeometry x="138" width="172" height="30" as="geometry">
            <mxRectangle width="172" height="30" as="alternateBounds" />
          </mxGeometry>
        </mxCell>
        <mxCell id="pJbM2nBJ7fXQVB-sFY_z-17" style="shape=tableRow;horizontal=0;startSize=0;swimlaneHead=0;swimlaneBody=0;top=0;left=0;bottom=0;right=0;collapsible=0;dropTarget=0;fillColor=none;points=[[0,0.5],[1,0.5]];portConstraint=eastwest;strokeColor=inherit;fontSize=16;arcSize=15;" parent="pJbM2nBJ7fXQVB-sFY_z-1" vertex="1">
          <mxGeometry y="190" width="310" height="30" as="geometry" />
        </mxCell>
        <mxCell id="pJbM2nBJ7fXQVB-sFY_z-18" value="password" style="shape=partialRectangle;html=1;whiteSpace=wrap;connectable=0;fillColor=none;top=0;left=0;bottom=0;right=0;overflow=hidden;strokeColor=inherit;fontSize=16;" parent="pJbM2nBJ7fXQVB-sFY_z-17" vertex="1">
          <mxGeometry width="138" height="30" as="geometry">
            <mxRectangle width="138" height="30" as="alternateBounds" />
          </mxGeometry>
        </mxCell>
        <mxCell id="pJbM2nBJ7fXQVB-sFY_z-19" value="String" style="shape=partialRectangle;html=1;whiteSpace=wrap;connectable=0;fillColor=none;top=0;left=0;bottom=0;right=0;align=center;spacingLeft=6;overflow=hidden;strokeColor=inherit;fontSize=16;" parent="pJbM2nBJ7fXQVB-sFY_z-17" vertex="1">
          <mxGeometry x="138" width="172" height="30" as="geometry">
            <mxRectangle width="172" height="30" as="alternateBounds" />
          </mxGeometry>
        </mxCell>
        <mxCell id="pJbM2nBJ7fXQVB-sFY_z-20" style="shape=tableRow;horizontal=0;startSize=0;swimlaneHead=0;swimlaneBody=0;top=0;left=0;bottom=0;right=0;collapsible=0;dropTarget=0;fillColor=none;points=[[0,0.5],[1,0.5]];portConstraint=eastwest;strokeColor=inherit;fontSize=16;arcSize=15;" parent="pJbM2nBJ7fXQVB-sFY_z-1" vertex="1">
          <mxGeometry y="220" width="310" height="30" as="geometry" />
        </mxCell>
        <mxCell id="pJbM2nBJ7fXQVB-sFY_z-21" value="picturePath" style="shape=partialRectangle;html=1;whiteSpace=wrap;connectable=0;fillColor=none;top=0;left=0;bottom=0;right=0;overflow=hidden;strokeColor=inherit;fontSize=16;" parent="pJbM2nBJ7fXQVB-sFY_z-20" vertex="1">
          <mxGeometry width="138" height="30" as="geometry">
            <mxRectangle width="138" height="30" as="alternateBounds" />
          </mxGeometry>
        </mxCell>
        <mxCell id="pJbM2nBJ7fXQVB-sFY_z-22" value="String Ref" style="shape=partialRectangle;html=1;whiteSpace=wrap;connectable=0;fillColor=none;top=0;left=0;bottom=0;right=0;align=center;spacingLeft=6;overflow=hidden;strokeColor=inherit;fontSize=16;" parent="pJbM2nBJ7fXQVB-sFY_z-20" vertex="1">
          <mxGeometry x="138" width="172" height="30" as="geometry">
            <mxRectangle width="172" height="30" as="alternateBounds" />
          </mxGeometry>
        </mxCell>
        <mxCell id="pJbM2nBJ7fXQVB-sFY_z-23" style="shape=tableRow;horizontal=0;startSize=0;swimlaneHead=0;swimlaneBody=0;top=0;left=0;bottom=0;right=0;collapsible=0;dropTarget=0;fillColor=none;points=[[0,0.5],[1,0.5]];portConstraint=eastwest;strokeColor=inherit;fontSize=16;arcSize=15;" parent="pJbM2nBJ7fXQVB-sFY_z-1" vertex="1">
          <mxGeometry y="250" width="310" height="30" as="geometry" />
        </mxCell>
        <mxCell id="pJbM2nBJ7fXQVB-sFY_z-24" value="location" style="shape=partialRectangle;html=1;whiteSpace=wrap;connectable=0;fillColor=none;top=0;left=0;bottom=0;right=0;overflow=hidden;strokeColor=inherit;fontSize=16;" parent="pJbM2nBJ7fXQVB-sFY_z-23" vertex="1">
          <mxGeometry width="138" height="30" as="geometry">
            <mxRectangle width="138" height="30" as="alternateBounds" />
          </mxGeometry>
        </mxCell>
        <mxCell id="pJbM2nBJ7fXQVB-sFY_z-25" value="String" style="shape=partialRectangle;html=1;whiteSpace=wrap;connectable=0;fillColor=none;top=0;left=0;bottom=0;right=0;align=center;spacingLeft=6;overflow=hidden;strokeColor=inherit;fontSize=16;" parent="pJbM2nBJ7fXQVB-sFY_z-23" vertex="1">
          <mxGeometry x="138" width="172" height="30" as="geometry">
            <mxRectangle width="172" height="30" as="alternateBounds" />
          </mxGeometry>
        </mxCell>
        <mxCell id="pJbM2nBJ7fXQVB-sFY_z-26" style="shape=tableRow;horizontal=0;startSize=0;swimlaneHead=0;swimlaneBody=0;top=0;left=0;bottom=0;right=0;collapsible=0;dropTarget=0;fillColor=none;points=[[0,0.5],[1,0.5]];portConstraint=eastwest;strokeColor=inherit;fontSize=16;arcSize=15;" parent="pJbM2nBJ7fXQVB-sFY_z-1" vertex="1">
          <mxGeometry y="280" width="310" height="30" as="geometry" />
        </mxCell>
        <mxCell id="pJbM2nBJ7fXQVB-sFY_z-27" value="occupation" style="shape=partialRectangle;html=1;whiteSpace=wrap;connectable=0;fillColor=none;top=0;left=0;bottom=0;right=0;overflow=hidden;strokeColor=inherit;fontSize=16;" parent="pJbM2nBJ7fXQVB-sFY_z-26" vertex="1">
          <mxGeometry width="138" height="30" as="geometry">
            <mxRectangle width="138" height="30" as="alternateBounds" />
          </mxGeometry>
        </mxCell>
        <mxCell id="pJbM2nBJ7fXQVB-sFY_z-28" value="String" style="shape=partialRectangle;html=1;whiteSpace=wrap;connectable=0;fillColor=none;top=0;left=0;bottom=0;right=0;align=center;spacingLeft=6;overflow=hidden;strokeColor=inherit;fontSize=16;" parent="pJbM2nBJ7fXQVB-sFY_z-26" vertex="1">
          <mxGeometry x="138" width="172" height="30" as="geometry">
            <mxRectangle width="172" height="30" as="alternateBounds" />
          </mxGeometry>
        </mxCell>
        <mxCell id="pJbM2nBJ7fXQVB-sFY_z-29" style="shape=tableRow;horizontal=0;startSize=0;swimlaneHead=0;swimlaneBody=0;top=0;left=0;bottom=0;right=0;collapsible=0;dropTarget=0;fillColor=none;points=[[0,0.5],[1,0.5]];portConstraint=eastwest;strokeColor=inherit;fontSize=16;arcSize=15;" parent="pJbM2nBJ7fXQVB-sFY_z-1" vertex="1">
          <mxGeometry y="310" width="310" height="30" as="geometry" />
        </mxCell>
        <mxCell id="pJbM2nBJ7fXQVB-sFY_z-30" value="viewedProfile" style="shape=partialRectangle;html=1;whiteSpace=wrap;connectable=0;fillColor=none;top=0;left=0;bottom=0;right=0;overflow=hidden;strokeColor=inherit;fontSize=16;" parent="pJbM2nBJ7fXQVB-sFY_z-29" vertex="1">
          <mxGeometry width="138" height="30" as="geometry">
            <mxRectangle width="138" height="30" as="alternateBounds" />
          </mxGeometry>
        </mxCell>
        <mxCell id="pJbM2nBJ7fXQVB-sFY_z-31" value="Number" style="shape=partialRectangle;html=1;whiteSpace=wrap;connectable=0;fillColor=none;top=0;left=0;bottom=0;right=0;align=center;spacingLeft=6;overflow=hidden;strokeColor=inherit;fontSize=16;" parent="pJbM2nBJ7fXQVB-sFY_z-29" vertex="1">
          <mxGeometry x="138" width="172" height="30" as="geometry">
            <mxRectangle width="172" height="30" as="alternateBounds" />
          </mxGeometry>
        </mxCell>
        <mxCell id="pJbM2nBJ7fXQVB-sFY_z-33" style="shape=tableRow;horizontal=0;startSize=0;swimlaneHead=0;swimlaneBody=0;top=0;left=0;bottom=0;right=0;collapsible=0;dropTarget=0;fillColor=none;points=[[0,0.5],[1,0.5]];portConstraint=eastwest;strokeColor=inherit;fontSize=16;arcSize=15;" parent="pJbM2nBJ7fXQVB-sFY_z-1" vertex="1">
          <mxGeometry y="340" width="310" height="40" as="geometry" />
        </mxCell>
        <mxCell id="pJbM2nBJ7fXQVB-sFY_z-34" value="impressions" style="shape=partialRectangle;html=1;whiteSpace=wrap;connectable=0;fillColor=none;top=0;left=0;bottom=0;right=0;overflow=hidden;strokeColor=inherit;fontSize=16;" parent="pJbM2nBJ7fXQVB-sFY_z-33" vertex="1">
          <mxGeometry width="138" height="40" as="geometry">
            <mxRectangle width="138" height="40" as="alternateBounds" />
          </mxGeometry>
        </mxCell>
        <mxCell id="pJbM2nBJ7fXQVB-sFY_z-35" value="Number" style="shape=partialRectangle;html=1;whiteSpace=wrap;connectable=0;fillColor=none;top=0;left=0;bottom=0;right=0;align=center;spacingLeft=6;overflow=hidden;strokeColor=inherit;fontSize=16;" parent="pJbM2nBJ7fXQVB-sFY_z-33" vertex="1">
          <mxGeometry x="138" width="172" height="40" as="geometry">
            <mxRectangle width="172" height="40" as="alternateBounds" />
          </mxGeometry>
        </mxCell>
        <mxCell id="pJbM2nBJ7fXQVB-sFY_z-36" value="Post" style="shape=table;startSize=30;container=1;collapsible=0;childLayout=tableLayout;fixedRows=1;rowLines=0;fontStyle=0;strokeColor=default;fontSize=16;" parent="1" vertex="1">
          <mxGeometry x="450" y="30" width="310" height="340" as="geometry" />
        </mxCell>
        <mxCell id="pJbM2nBJ7fXQVB-sFY_z-37" value="" style="shape=tableRow;horizontal=0;startSize=0;swimlaneHead=0;swimlaneBody=0;top=0;left=0;bottom=0;right=0;collapsible=0;dropTarget=0;fillColor=none;points=[[0,0.5],[1,0.5]];portConstraint=eastwest;strokeColor=inherit;fontSize=16;" parent="pJbM2nBJ7fXQVB-sFY_z-36" vertex="1">
          <mxGeometry y="30" width="310" height="30" as="geometry" />
        </mxCell>
        <mxCell id="pJbM2nBJ7fXQVB-sFY_z-38" value="_id" style="shape=partialRectangle;html=1;whiteSpace=wrap;connectable=0;fillColor=none;top=0;left=0;bottom=0;right=0;overflow=hidden;pointerEvents=1;strokeColor=inherit;fontSize=16;" parent="pJbM2nBJ7fXQVB-sFY_z-37" vertex="1">
          <mxGeometry width="138" height="30" as="geometry">
            <mxRectangle width="138" height="30" as="alternateBounds" />
          </mxGeometry>
        </mxCell>
        <mxCell id="pJbM2nBJ7fXQVB-sFY_z-39" value="String" style="shape=partialRectangle;html=1;whiteSpace=wrap;connectable=0;fillColor=none;top=0;left=0;bottom=0;right=0;align=center;spacingLeft=6;overflow=hidden;strokeColor=inherit;fontSize=16;" parent="pJbM2nBJ7fXQVB-sFY_z-37" vertex="1">
          <mxGeometry x="138" width="172" height="30" as="geometry">
            <mxRectangle width="172" height="30" as="alternateBounds" />
          </mxGeometry>
        </mxCell>
        <mxCell id="pJbM2nBJ7fXQVB-sFY_z-40" value="" style="shape=tableRow;horizontal=0;startSize=0;swimlaneHead=0;swimlaneBody=0;top=0;left=0;bottom=0;right=0;collapsible=0;dropTarget=0;fillColor=none;points=[[0,0.5],[1,0.5]];portConstraint=eastwest;strokeColor=inherit;fontSize=16;" parent="pJbM2nBJ7fXQVB-sFY_z-36" vertex="1">
          <mxGeometry y="60" width="310" height="30" as="geometry" />
        </mxCell>
        <mxCell id="pJbM2nBJ7fXQVB-sFY_z-41" value="userId" style="shape=partialRectangle;html=1;whiteSpace=wrap;connectable=0;fillColor=none;top=0;left=0;bottom=0;right=0;overflow=hidden;strokeColor=inherit;fontSize=16;" parent="pJbM2nBJ7fXQVB-sFY_z-40" vertex="1">
          <mxGeometry width="138" height="30" as="geometry">
            <mxRectangle width="138" height="30" as="alternateBounds" />
          </mxGeometry>
        </mxCell>
        <mxCell id="pJbM2nBJ7fXQVB-sFY_z-42" value="String Ref" style="shape=partialRectangle;html=1;whiteSpace=wrap;connectable=0;fillColor=none;top=0;left=0;bottom=0;right=0;align=center;spacingLeft=6;overflow=hidden;strokeColor=inherit;fontSize=16;" parent="pJbM2nBJ7fXQVB-sFY_z-40" vertex="1">
          <mxGeometry x="138" width="172" height="30" as="geometry">
            <mxRectangle width="172" height="30" as="alternateBounds" />
          </mxGeometry>
        </mxCell>
        <mxCell id="pJbM2nBJ7fXQVB-sFY_z-43" style="shape=tableRow;horizontal=0;startSize=0;swimlaneHead=0;swimlaneBody=0;top=0;left=0;bottom=0;right=0;collapsible=0;dropTarget=0;fillColor=none;points=[[0,0.5],[1,0.5]];portConstraint=eastwest;strokeColor=inherit;fontSize=16;" parent="pJbM2nBJ7fXQVB-sFY_z-36" vertex="1">
          <mxGeometry y="90" width="310" height="30" as="geometry" />
        </mxCell>
        <mxCell id="pJbM2nBJ7fXQVB-sFY_z-44" value="firstName" style="shape=partialRectangle;html=1;whiteSpace=wrap;connectable=0;fillColor=none;top=0;left=0;bottom=0;right=0;overflow=hidden;strokeColor=inherit;fontSize=16;" parent="pJbM2nBJ7fXQVB-sFY_z-43" vertex="1">
          <mxGeometry width="138" height="30" as="geometry">
            <mxRectangle width="138" height="30" as="alternateBounds" />
          </mxGeometry>
        </mxCell>
        <mxCell id="pJbM2nBJ7fXQVB-sFY_z-45" value="String" style="shape=partialRectangle;html=1;whiteSpace=wrap;connectable=0;fillColor=none;top=0;left=0;bottom=0;right=0;align=center;spacingLeft=6;overflow=hidden;strokeColor=inherit;fontSize=16;" parent="pJbM2nBJ7fXQVB-sFY_z-43" vertex="1">
          <mxGeometry x="138" width="172" height="30" as="geometry">
            <mxRectangle width="172" height="30" as="alternateBounds" />
          </mxGeometry>
        </mxCell>
        <mxCell id="pJbM2nBJ7fXQVB-sFY_z-46" value="" style="shape=tableRow;horizontal=0;startSize=0;swimlaneHead=0;swimlaneBody=0;top=0;left=0;bottom=0;right=0;collapsible=0;dropTarget=0;fillColor=none;points=[[0,0.5],[1,0.5]];portConstraint=eastwest;strokeColor=inherit;fontSize=16;arcSize=15;" parent="pJbM2nBJ7fXQVB-sFY_z-36" vertex="1">
          <mxGeometry y="120" width="310" height="40" as="geometry" />
        </mxCell>
        <mxCell id="pJbM2nBJ7fXQVB-sFY_z-47" value="lastName" style="shape=partialRectangle;html=1;whiteSpace=wrap;connectable=0;fillColor=none;top=0;left=0;bottom=0;right=0;overflow=hidden;strokeColor=inherit;fontSize=16;" parent="pJbM2nBJ7fXQVB-sFY_z-46" vertex="1">
          <mxGeometry width="138" height="40" as="geometry">
            <mxRectangle width="138" height="40" as="alternateBounds" />
          </mxGeometry>
        </mxCell>
        <mxCell id="pJbM2nBJ7fXQVB-sFY_z-48" value="String" style="shape=partialRectangle;html=1;whiteSpace=wrap;connectable=0;fillColor=none;top=0;left=0;bottom=0;right=0;align=center;spacingLeft=6;overflow=hidden;strokeColor=inherit;fontSize=16;" parent="pJbM2nBJ7fXQVB-sFY_z-46" vertex="1">
          <mxGeometry x="138" width="172" height="40" as="geometry">
            <mxRectangle width="172" height="40" as="alternateBounds" />
          </mxGeometry>
        </mxCell>
        <mxCell id="pJbM2nBJ7fXQVB-sFY_z-49" style="shape=tableRow;horizontal=0;startSize=0;swimlaneHead=0;swimlaneBody=0;top=0;left=0;bottom=0;right=0;collapsible=0;dropTarget=0;fillColor=none;points=[[0,0.5],[1,0.5]];portConstraint=eastwest;strokeColor=inherit;fontSize=16;arcSize=15;" parent="pJbM2nBJ7fXQVB-sFY_z-36" vertex="1">
          <mxGeometry y="160" width="310" height="30" as="geometry" />
        </mxCell>
        <mxCell id="pJbM2nBJ7fXQVB-sFY_z-50" value="location" style="shape=partialRectangle;html=1;whiteSpace=wrap;connectable=0;fillColor=none;top=0;left=0;bottom=0;right=0;overflow=hidden;strokeColor=inherit;fontSize=16;" parent="pJbM2nBJ7fXQVB-sFY_z-49" vertex="1">
          <mxGeometry width="138" height="30" as="geometry">
            <mxRectangle width="138" height="30" as="alternateBounds" />
          </mxGeometry>
        </mxCell>
        <mxCell id="pJbM2nBJ7fXQVB-sFY_z-51" value="String" style="shape=partialRectangle;html=1;whiteSpace=wrap;connectable=0;fillColor=none;top=0;left=0;bottom=0;right=0;align=center;spacingLeft=6;overflow=hidden;strokeColor=inherit;fontSize=16;" parent="pJbM2nBJ7fXQVB-sFY_z-49" vertex="1">
          <mxGeometry x="138" width="172" height="30" as="geometry">
            <mxRectangle width="172" height="30" as="alternateBounds" />
          </mxGeometry>
        </mxCell>
        <mxCell id="pJbM2nBJ7fXQVB-sFY_z-52" style="shape=tableRow;horizontal=0;startSize=0;swimlaneHead=0;swimlaneBody=0;top=0;left=0;bottom=0;right=0;collapsible=0;dropTarget=0;fillColor=none;points=[[0,0.5],[1,0.5]];portConstraint=eastwest;strokeColor=inherit;fontSize=16;arcSize=15;" parent="pJbM2nBJ7fXQVB-sFY_z-36" vertex="1">
          <mxGeometry y="190" width="310" height="30" as="geometry" />
        </mxCell>
        <mxCell id="pJbM2nBJ7fXQVB-sFY_z-53" value="description" style="shape=partialRectangle;html=1;whiteSpace=wrap;connectable=0;fillColor=none;top=0;left=0;bottom=0;right=0;overflow=hidden;strokeColor=inherit;fontSize=16;" parent="pJbM2nBJ7fXQVB-sFY_z-52" vertex="1">
          <mxGeometry width="138" height="30" as="geometry">
            <mxRectangle width="138" height="30" as="alternateBounds" />
          </mxGeometry>
        </mxCell>
        <mxCell id="pJbM2nBJ7fXQVB-sFY_z-54" value="String" style="shape=partialRectangle;html=1;whiteSpace=wrap;connectable=0;fillColor=none;top=0;left=0;bottom=0;right=0;align=center;spacingLeft=6;overflow=hidden;strokeColor=inherit;fontSize=16;" parent="pJbM2nBJ7fXQVB-sFY_z-52" vertex="1">
          <mxGeometry x="138" width="172" height="30" as="geometry">
            <mxRectangle width="172" height="30" as="alternateBounds" />
          </mxGeometry>
        </mxCell>
        <mxCell id="pJbM2nBJ7fXQVB-sFY_z-55" style="shape=tableRow;horizontal=0;startSize=0;swimlaneHead=0;swimlaneBody=0;top=0;left=0;bottom=0;right=0;collapsible=0;dropTarget=0;fillColor=none;points=[[0,0.5],[1,0.5]];portConstraint=eastwest;strokeColor=inherit;fontSize=16;arcSize=15;" parent="pJbM2nBJ7fXQVB-sFY_z-36" vertex="1">
          <mxGeometry y="220" width="310" height="30" as="geometry" />
        </mxCell>
        <mxCell id="pJbM2nBJ7fXQVB-sFY_z-56" value="userPicturePath" style="shape=partialRectangle;html=1;whiteSpace=wrap;connectable=0;fillColor=none;top=0;left=0;bottom=0;right=0;overflow=hidden;strokeColor=inherit;fontSize=16;" parent="pJbM2nBJ7fXQVB-sFY_z-55" vertex="1">
          <mxGeometry width="138" height="30" as="geometry">
            <mxRectangle width="138" height="30" as="alternateBounds" />
          </mxGeometry>
        </mxCell>
        <mxCell id="pJbM2nBJ7fXQVB-sFY_z-57" value="String Ref" style="shape=partialRectangle;html=1;whiteSpace=wrap;connectable=0;fillColor=none;top=0;left=0;bottom=0;right=0;align=center;spacingLeft=6;overflow=hidden;strokeColor=inherit;fontSize=16;" parent="pJbM2nBJ7fXQVB-sFY_z-55" vertex="1">
          <mxGeometry x="138" width="172" height="30" as="geometry">
            <mxRectangle width="172" height="30" as="alternateBounds" />
          </mxGeometry>
        </mxCell>
        <mxCell id="pJbM2nBJ7fXQVB-sFY_z-58" style="shape=tableRow;horizontal=0;startSize=0;swimlaneHead=0;swimlaneBody=0;top=0;left=0;bottom=0;right=0;collapsible=0;dropTarget=0;fillColor=none;points=[[0,0.5],[1,0.5]];portConstraint=eastwest;strokeColor=inherit;fontSize=16;arcSize=15;" parent="pJbM2nBJ7fXQVB-sFY_z-36" vertex="1">
          <mxGeometry y="250" width="310" height="30" as="geometry" />
        </mxCell>
        <mxCell id="pJbM2nBJ7fXQVB-sFY_z-59" value="picturePath" style="shape=partialRectangle;html=1;whiteSpace=wrap;connectable=0;fillColor=none;top=0;left=0;bottom=0;right=0;overflow=hidden;strokeColor=inherit;fontSize=16;" parent="pJbM2nBJ7fXQVB-sFY_z-58" vertex="1">
          <mxGeometry width="138" height="30" as="geometry">
            <mxRectangle width="138" height="30" as="alternateBounds" />
          </mxGeometry>
        </mxCell>
        <mxCell id="pJbM2nBJ7fXQVB-sFY_z-60" value="String Ref" style="shape=partialRectangle;html=1;whiteSpace=wrap;connectable=0;fillColor=none;top=0;left=0;bottom=0;right=0;align=center;spacingLeft=6;overflow=hidden;strokeColor=inherit;fontSize=16;" parent="pJbM2nBJ7fXQVB-sFY_z-58" vertex="1">
          <mxGeometry x="138" width="172" height="30" as="geometry">
            <mxRectangle width="172" height="30" as="alternateBounds" />
          </mxGeometry>
        </mxCell>
        <mxCell id="pJbM2nBJ7fXQVB-sFY_z-61" style="shape=tableRow;horizontal=0;startSize=0;swimlaneHead=0;swimlaneBody=0;top=0;left=0;bottom=0;right=0;collapsible=0;dropTarget=0;fillColor=none;points=[[0,0.5],[1,0.5]];portConstraint=eastwest;strokeColor=inherit;fontSize=16;arcSize=15;" parent="pJbM2nBJ7fXQVB-sFY_z-36" vertex="1">
          <mxGeometry y="280" width="310" height="30" as="geometry" />
        </mxCell>
        <mxCell id="pJbM2nBJ7fXQVB-sFY_z-62" value="likes" style="shape=partialRectangle;html=1;whiteSpace=wrap;connectable=0;fillColor=none;top=0;left=0;bottom=0;right=0;overflow=hidden;strokeColor=inherit;fontSize=16;" parent="pJbM2nBJ7fXQVB-sFY_z-61" vertex="1">
          <mxGeometry width="138" height="30" as="geometry">
            <mxRectangle width="138" height="30" as="alternateBounds" />
          </mxGeometry>
        </mxCell>
        <mxCell id="pJbM2nBJ7fXQVB-sFY_z-63" value="Object &amp;lt;String Ref&amp;gt;" style="shape=partialRectangle;html=1;whiteSpace=wrap;connectable=0;fillColor=none;top=0;left=0;bottom=0;right=0;align=center;spacingLeft=6;overflow=hidden;strokeColor=inherit;fontSize=16;" parent="pJbM2nBJ7fXQVB-sFY_z-61" vertex="1">
          <mxGeometry x="138" width="172" height="30" as="geometry">
            <mxRectangle width="172" height="30" as="alternateBounds" />
          </mxGeometry>
        </mxCell>
        <mxCell id="pJbM2nBJ7fXQVB-sFY_z-64" style="shape=tableRow;horizontal=0;startSize=0;swimlaneHead=0;swimlaneBody=0;top=0;left=0;bottom=0;right=0;collapsible=0;dropTarget=0;fillColor=none;points=[[0,0.5],[1,0.5]];portConstraint=eastwest;strokeColor=inherit;fontSize=16;arcSize=15;" parent="pJbM2nBJ7fXQVB-sFY_z-36" vertex="1">
          <mxGeometry y="310" width="310" height="30" as="geometry" />
        </mxCell>
        <mxCell id="pJbM2nBJ7fXQVB-sFY_z-65" value="comments" style="shape=partialRectangle;html=1;whiteSpace=wrap;connectable=0;fillColor=none;top=0;left=0;bottom=0;right=0;overflow=hidden;strokeColor=inherit;fontSize=16;" parent="pJbM2nBJ7fXQVB-sFY_z-64" vertex="1">
          <mxGeometry width="138" height="30" as="geometry">
            <mxRectangle width="138" height="30" as="alternateBounds" />
          </mxGeometry>
        </mxCell>
        <mxCell id="pJbM2nBJ7fXQVB-sFY_z-66" value="Array &amp;lt;String&amp;gt;" style="shape=partialRectangle;html=1;whiteSpace=wrap;connectable=0;fillColor=none;top=0;left=0;bottom=0;right=0;align=center;spacingLeft=6;overflow=hidden;strokeColor=inherit;fontSize=16;" parent="pJbM2nBJ7fXQVB-sFY_z-64" vertex="1">
          <mxGeometry x="138" width="172" height="30" as="geometry">
            <mxRectangle width="172" height="30" as="alternateBounds" />
          </mxGeometry>
        </mxCell>
        <mxCell id="pJbM2nBJ7fXQVB-sFY_z-101" value="Friend" style="shape=table;startSize=30;container=1;collapsible=0;childLayout=tableLayout;fixedRows=1;rowLines=0;fontStyle=0;strokeColor=default;fontSize=16;" parent="1" vertex="1">
          <mxGeometry x="450" y="420" width="310" height="100" as="geometry" />
        </mxCell>
        <mxCell id="pJbM2nBJ7fXQVB-sFY_z-102" value="" style="shape=tableRow;horizontal=0;startSize=0;swimlaneHead=0;swimlaneBody=0;top=0;left=0;bottom=0;right=0;collapsible=0;dropTarget=0;fillColor=none;points=[[0,0.5],[1,0.5]];portConstraint=eastwest;strokeColor=inherit;fontSize=16;" parent="pJbM2nBJ7fXQVB-sFY_z-101" vertex="1">
          <mxGeometry y="30" width="310" height="30" as="geometry" />
        </mxCell>
        <mxCell id="pJbM2nBJ7fXQVB-sFY_z-103" value="_id" style="shape=partialRectangle;html=1;whiteSpace=wrap;connectable=0;fillColor=none;top=0;left=0;bottom=0;right=0;overflow=hidden;pointerEvents=1;strokeColor=inherit;fontSize=16;" parent="pJbM2nBJ7fXQVB-sFY_z-102" vertex="1">
          <mxGeometry width="138" height="30" as="geometry">
            <mxRectangle width="138" height="30" as="alternateBounds" />
          </mxGeometry>
        </mxCell>
        <mxCell id="pJbM2nBJ7fXQVB-sFY_z-104" value="String" style="shape=partialRectangle;html=1;whiteSpace=wrap;connectable=0;fillColor=none;top=0;left=0;bottom=0;right=0;align=center;spacingLeft=6;overflow=hidden;strokeColor=inherit;fontSize=16;" parent="pJbM2nBJ7fXQVB-sFY_z-102" vertex="1">
          <mxGeometry x="138" width="172" height="30" as="geometry">
            <mxRectangle width="172" height="30" as="alternateBounds" />
          </mxGeometry>
        </mxCell>
        <mxCell id="pJbM2nBJ7fXQVB-sFY_z-105" value="" style="shape=tableRow;horizontal=0;startSize=0;swimlaneHead=0;swimlaneBody=0;top=0;left=0;bottom=0;right=0;collapsible=0;dropTarget=0;fillColor=none;points=[[0,0.5],[1,0.5]];portConstraint=eastwest;strokeColor=inherit;fontSize=16;" parent="pJbM2nBJ7fXQVB-sFY_z-101" vertex="1">
          <mxGeometry y="60" width="310" height="40" as="geometry" />
        </mxCell>
        <mxCell id="pJbM2nBJ7fXQVB-sFY_z-106" value="_userId" style="shape=partialRectangle;html=1;whiteSpace=wrap;connectable=0;fillColor=none;top=0;left=0;bottom=0;right=0;overflow=hidden;strokeColor=inherit;fontSize=16;" parent="pJbM2nBJ7fXQVB-sFY_z-105" vertex="1">
          <mxGeometry width="138" height="40" as="geometry">
            <mxRectangle width="138" height="40" as="alternateBounds" />
          </mxGeometry>
        </mxCell>
        <mxCell id="pJbM2nBJ7fXQVB-sFY_z-107" value="String" style="shape=partialRectangle;html=1;whiteSpace=wrap;connectable=0;fillColor=none;top=0;left=0;bottom=0;right=0;align=center;spacingLeft=6;overflow=hidden;strokeColor=inherit;fontSize=16;" parent="pJbM2nBJ7fXQVB-sFY_z-105" vertex="1">
          <mxGeometry x="138" width="172" height="40" as="geometry">
            <mxRectangle width="172" height="40" as="alternateBounds" />
          </mxGeometry>
        </mxCell>
        <mxCell id="pJbM2nBJ7fXQVB-sFY_z-136" value="Images" style="swimlane;fontStyle=0;childLayout=stackLayout;horizontal=1;startSize=30;horizontalStack=0;resizeParent=1;resizeParentMax=0;resizeLast=0;collapsible=1;marginBottom=0;whiteSpace=wrap;html=1;" parent="1" vertex="1">
          <mxGeometry x="560" y="770" width="140" height="60" as="geometry" />
        </mxCell>
        <mxCell id="pJbM2nBJ7fXQVB-sFY_z-137" value="Path" style="text;strokeColor=none;fillColor=none;align=center;verticalAlign=middle;spacingLeft=4;spacingRight=4;overflow=hidden;points=[[0,0.5],[1,0.5]];portConstraint=eastwest;rotatable=0;whiteSpace=wrap;html=1;" parent="pJbM2nBJ7fXQVB-sFY_z-136" vertex="1">
          <mxGeometry y="30" width="140" height="30" as="geometry" />
        </mxCell>
        <mxCell id="pJbM2nBJ7fXQVB-sFY_z-140" style="edgeStyle=orthogonalEdgeStyle;rounded=0;orthogonalLoop=1;jettySize=auto;html=1;exitX=1;exitY=0.5;exitDx=0;exitDy=0;" parent="1" source="pJbM2nBJ7fXQVB-sFY_z-20" target="pJbM2nBJ7fXQVB-sFY_z-137" edge="1">
          <mxGeometry relative="1" as="geometry">
            <Array as="points">
              <mxPoint x="400" y="545" />
              <mxPoint x="400" y="815" />
            </Array>
          </mxGeometry>
        </mxCell>
        <mxCell id="pJbM2nBJ7fXQVB-sFY_z-141" style="edgeStyle=orthogonalEdgeStyle;rounded=0;orthogonalLoop=1;jettySize=auto;html=1;entryX=1;entryY=0.5;entryDx=0;entryDy=0;" parent="1" target="pJbM2nBJ7fXQVB-sFY_z-137" edge="1">
          <mxGeometry relative="1" as="geometry">
            <mxPoint x="762" y="509" as="sourcePoint" />
            <Array as="points">
              <mxPoint x="760" y="509" />
              <mxPoint x="760" y="490" />
              <mxPoint x="780" y="490" />
              <mxPoint x="780" y="815" />
            </Array>
          </mxGeometry>
        </mxCell>
        <mxCell id="pJbM2nBJ7fXQVB-sFY_z-142" style="edgeStyle=orthogonalEdgeStyle;rounded=0;orthogonalLoop=1;jettySize=auto;html=1;entryX=1;entryY=0.5;entryDx=0;entryDy=0;" parent="1" source="pJbM2nBJ7fXQVB-sFY_z-58" target="pJbM2nBJ7fXQVB-sFY_z-137" edge="1">
          <mxGeometry relative="1" as="geometry">
            <mxPoint x="780.6173197428385" y="730" as="targetPoint" />
          </mxGeometry>
        </mxCell>
        <mxCell id="pJbM2nBJ7fXQVB-sFY_z-143" style="edgeStyle=orthogonalEdgeStyle;rounded=0;orthogonalLoop=1;jettySize=auto;html=1;exitX=1;exitY=0.5;exitDx=0;exitDy=0;entryX=1;entryY=0.5;entryDx=0;entryDy=0;" parent="1" source="pJbM2nBJ7fXQVB-sFY_z-55" target="pJbM2nBJ7fXQVB-sFY_z-137" edge="1">
          <mxGeometry relative="1" as="geometry">
            <Array as="points">
              <mxPoint x="780" y="265" />
              <mxPoint x="780" y="815" />
            </Array>
          </mxGeometry>
        </mxCell>
        <mxCell id="pJbM2nBJ7fXQVB-sFY_z-144" style="edgeStyle=orthogonalEdgeStyle;rounded=0;orthogonalLoop=1;jettySize=auto;html=1;entryX=0;entryY=0.5;entryDx=0;entryDy=0;" parent="1" source="pJbM2nBJ7fXQVB-sFY_z-40" target="pJbM2nBJ7fXQVB-sFY_z-2" edge="1">
          <mxGeometry relative="1" as="geometry" />
        </mxCell>
        <mxCell id="pJbM2nBJ7fXQVB-sFY_z-145" style="edgeStyle=orthogonalEdgeStyle;rounded=0;orthogonalLoop=1;jettySize=auto;html=1;entryX=0.005;entryY=0.075;entryDx=0;entryDy=0;entryPerimeter=0;" parent="1" source="pJbM2nBJ7fXQVB-sFY_z-8" target="pJbM2nBJ7fXQVB-sFY_z-101" edge="1">
          <mxGeometry relative="1" as="geometry" />
        </mxCell>
        <mxCell id="pJbM2nBJ7fXQVB-sFY_z-146" style="edgeStyle=orthogonalEdgeStyle;rounded=0;orthogonalLoop=1;jettySize=auto;html=1;entryX=0;entryY=0.5;entryDx=0;entryDy=0;" parent="1" source="pJbM2nBJ7fXQVB-sFY_z-102" target="pJbM2nBJ7fXQVB-sFY_z-2" edge="1">
          <mxGeometry relative="1" as="geometry">
            <Array as="points">
              <mxPoint x="420" y="465" />
              <mxPoint x="420" y="730" />
              <mxPoint x="30" y="730" />
              <mxPoint x="30" y="345" />
            </Array>
          </mxGeometry>
        </mxCell>
        <mxCell id="pJbM2nBJ7fXQVB-sFY_z-147" style="edgeStyle=orthogonalEdgeStyle;rounded=0;orthogonalLoop=1;jettySize=auto;html=1;entryX=0;entryY=0.5;entryDx=0;entryDy=0;" parent="1" source="pJbM2nBJ7fXQVB-sFY_z-61" target="pJbM2nBJ7fXQVB-sFY_z-2" edge="1">
          <mxGeometry relative="1" as="geometry">
            <Array as="points">
              <mxPoint x="405" y="325" />
              <mxPoint x="405" y="170" />
              <mxPoint x="30" y="170" />
              <mxPoint x="30" y="345" />
            </Array>
          </mxGeometry>
        </mxCell>
      </root>
    </mxGraphModel>
  </diagram>
</mxfile>
